%TF.GenerationSoftware,KiCad,Pcbnew,(5.1.10)-1*%
%TF.CreationDate,2021-08-19T13:56:03-06:00*%
%TF.ProjectId,Remote Ocean Acidification Monitor,52656d6f-7465-4204-9f63-65616e204163,rev?*%
%TF.SameCoordinates,Original*%
%TF.FileFunction,Legend,Bot*%
%TF.FilePolarity,Positive*%
%FSLAX46Y46*%
G04 Gerber Fmt 4.6, Leading zero omitted, Abs format (unit mm)*
G04 Created by KiCad (PCBNEW (5.1.10)-1) date 2021-08-19 13:56:03*
%MOMM*%
%LPD*%
G01*
G04 APERTURE LIST*
%ADD10C,0.150000*%
%ADD11C,0.120000*%
%ADD12C,0.100000*%
G04 APERTURE END LIST*
D10*
X131913761Y-105697976D02*
X131961380Y-105840833D01*
X131961380Y-106078928D01*
X131913761Y-106174166D01*
X131866142Y-106221785D01*
X131770904Y-106269404D01*
X131675666Y-106269404D01*
X131580428Y-106221785D01*
X131532809Y-106174166D01*
X131485190Y-106078928D01*
X131437571Y-105888452D01*
X131389952Y-105793214D01*
X131342333Y-105745595D01*
X131247095Y-105697976D01*
X131151857Y-105697976D01*
X131056619Y-105745595D01*
X131009000Y-105793214D01*
X130961380Y-105888452D01*
X130961380Y-106126547D01*
X131009000Y-106269404D01*
X131961380Y-106840833D02*
X131913761Y-106745595D01*
X131866142Y-106697976D01*
X131770904Y-106650357D01*
X131485190Y-106650357D01*
X131389952Y-106697976D01*
X131342333Y-106745595D01*
X131294714Y-106840833D01*
X131294714Y-106983690D01*
X131342333Y-107078928D01*
X131389952Y-107126547D01*
X131485190Y-107174166D01*
X131770904Y-107174166D01*
X131866142Y-107126547D01*
X131913761Y-107078928D01*
X131961380Y-106983690D01*
X131961380Y-106840833D01*
X131294714Y-107602738D02*
X132294714Y-107602738D01*
X131342333Y-107602738D02*
X131294714Y-107697976D01*
X131294714Y-107888452D01*
X131342333Y-107983690D01*
X131389952Y-108031309D01*
X131485190Y-108078928D01*
X131770904Y-108078928D01*
X131866142Y-108031309D01*
X131913761Y-107983690D01*
X131961380Y-107888452D01*
X131961380Y-107697976D01*
X131913761Y-107602738D01*
X131961380Y-108507500D02*
X130961380Y-108507500D01*
X131961380Y-108936071D02*
X131437571Y-108936071D01*
X131342333Y-108888452D01*
X131294714Y-108793214D01*
X131294714Y-108650357D01*
X131342333Y-108555119D01*
X131389952Y-108507500D01*
X131961380Y-109412261D02*
X131294714Y-109412261D01*
X130961380Y-109412261D02*
X131009000Y-109364642D01*
X131056619Y-109412261D01*
X131009000Y-109459880D01*
X130961380Y-109412261D01*
X131056619Y-109412261D01*
X131913761Y-110269404D02*
X131961380Y-110174166D01*
X131961380Y-109983690D01*
X131913761Y-109888452D01*
X131818523Y-109840833D01*
X131437571Y-109840833D01*
X131342333Y-109888452D01*
X131294714Y-109983690D01*
X131294714Y-110174166D01*
X131342333Y-110269404D01*
X131437571Y-110317023D01*
X131532809Y-110317023D01*
X131628047Y-109840833D01*
X131437571Y-111840833D02*
X131485190Y-111983690D01*
X131532809Y-112031309D01*
X131628047Y-112078928D01*
X131770904Y-112078928D01*
X131866142Y-112031309D01*
X131913761Y-111983690D01*
X131961380Y-111888452D01*
X131961380Y-111507500D01*
X130961380Y-111507500D01*
X130961380Y-111840833D01*
X131009000Y-111936071D01*
X131056619Y-111983690D01*
X131151857Y-112031309D01*
X131247095Y-112031309D01*
X131342333Y-111983690D01*
X131389952Y-111936071D01*
X131437571Y-111840833D01*
X131437571Y-111507500D01*
X131913761Y-112888452D02*
X131961380Y-112793214D01*
X131961380Y-112602738D01*
X131913761Y-112507500D01*
X131818523Y-112459880D01*
X131437571Y-112459880D01*
X131342333Y-112507500D01*
X131294714Y-112602738D01*
X131294714Y-112793214D01*
X131342333Y-112888452D01*
X131437571Y-112936071D01*
X131532809Y-112936071D01*
X131628047Y-112459880D01*
X131961380Y-113364642D02*
X131294714Y-113364642D01*
X131485190Y-113364642D02*
X131389952Y-113412261D01*
X131342333Y-113459880D01*
X131294714Y-113555119D01*
X131294714Y-113650357D01*
X131294714Y-113983690D02*
X131961380Y-113983690D01*
X131389952Y-113983690D02*
X131342333Y-114031309D01*
X131294714Y-114126547D01*
X131294714Y-114269404D01*
X131342333Y-114364642D01*
X131437571Y-114412261D01*
X131961380Y-114412261D01*
X131961380Y-114888452D02*
X131294714Y-114888452D01*
X130961380Y-114888452D02*
X131009000Y-114840833D01*
X131056619Y-114888452D01*
X131009000Y-114936071D01*
X130961380Y-114888452D01*
X131056619Y-114888452D01*
X131913761Y-115745595D02*
X131961380Y-115650357D01*
X131961380Y-115459880D01*
X131913761Y-115364642D01*
X131818523Y-115317023D01*
X131437571Y-115317023D01*
X131342333Y-115364642D01*
X131294714Y-115459880D01*
X131294714Y-115650357D01*
X131342333Y-115745595D01*
X131437571Y-115793214D01*
X131532809Y-115793214D01*
X131628047Y-115317023D01*
X131961380Y-116221785D02*
X131294714Y-116221785D01*
X131485190Y-116221785D02*
X131389952Y-116269404D01*
X131342333Y-116317023D01*
X131294714Y-116412261D01*
X131294714Y-116507500D01*
X133611380Y-106317023D02*
X133135190Y-105983690D01*
X133611380Y-105745595D02*
X132611380Y-105745595D01*
X132611380Y-106126547D01*
X132659000Y-106221785D01*
X132706619Y-106269404D01*
X132801857Y-106317023D01*
X132944714Y-106317023D01*
X133039952Y-106269404D01*
X133087571Y-106221785D01*
X133135190Y-106126547D01*
X133135190Y-105745595D01*
X132611380Y-106936071D02*
X132611380Y-107126547D01*
X132659000Y-107221785D01*
X132754238Y-107317023D01*
X132944714Y-107364642D01*
X133278047Y-107364642D01*
X133468523Y-107317023D01*
X133563761Y-107221785D01*
X133611380Y-107126547D01*
X133611380Y-106936071D01*
X133563761Y-106840833D01*
X133468523Y-106745595D01*
X133278047Y-106697976D01*
X132944714Y-106697976D01*
X132754238Y-106745595D01*
X132659000Y-106840833D01*
X132611380Y-106936071D01*
X133325666Y-107745595D02*
X133325666Y-108221785D01*
X133611380Y-107650357D02*
X132611380Y-107983690D01*
X133611380Y-108317023D01*
X133611380Y-108650357D02*
X132611380Y-108650357D01*
X133325666Y-108983690D01*
X132611380Y-109317023D01*
X133611380Y-109317023D01*
X133087571Y-110555119D02*
X133087571Y-110888452D01*
X133611380Y-111031309D02*
X133611380Y-110555119D01*
X132611380Y-110555119D01*
X132611380Y-111031309D01*
X132944714Y-111459880D02*
X133611380Y-111459880D01*
X133039952Y-111459880D02*
X132992333Y-111507500D01*
X132944714Y-111602738D01*
X132944714Y-111745595D01*
X132992333Y-111840833D01*
X133087571Y-111888452D01*
X133611380Y-111888452D01*
X133611380Y-112793214D02*
X132611380Y-112793214D01*
X133563761Y-112793214D02*
X133611380Y-112697976D01*
X133611380Y-112507500D01*
X133563761Y-112412261D01*
X133516142Y-112364642D01*
X133420904Y-112317023D01*
X133135190Y-112317023D01*
X133039952Y-112364642D01*
X132992333Y-112412261D01*
X132944714Y-112507500D01*
X132944714Y-112697976D01*
X132992333Y-112793214D01*
X132944714Y-113269404D02*
X133944714Y-113269404D01*
X132992333Y-113269404D02*
X132944714Y-113364642D01*
X132944714Y-113555119D01*
X132992333Y-113650357D01*
X133039952Y-113697976D01*
X133135190Y-113745595D01*
X133420904Y-113745595D01*
X133516142Y-113697976D01*
X133563761Y-113650357D01*
X133611380Y-113555119D01*
X133611380Y-113364642D01*
X133563761Y-113269404D01*
X133611380Y-114317023D02*
X133563761Y-114221785D01*
X133516142Y-114174166D01*
X133420904Y-114126547D01*
X133135190Y-114126547D01*
X133039952Y-114174166D01*
X132992333Y-114221785D01*
X132944714Y-114317023D01*
X132944714Y-114459880D01*
X132992333Y-114555119D01*
X133039952Y-114602738D01*
X133135190Y-114650357D01*
X133420904Y-114650357D01*
X133516142Y-114602738D01*
X133563761Y-114555119D01*
X133611380Y-114459880D01*
X133611380Y-114317023D01*
X133611380Y-115078928D02*
X132944714Y-115078928D01*
X132611380Y-115078928D02*
X132659000Y-115031309D01*
X132706619Y-115078928D01*
X132659000Y-115126547D01*
X132611380Y-115078928D01*
X132706619Y-115078928D01*
X132944714Y-115555119D02*
X133611380Y-115555119D01*
X133039952Y-115555119D02*
X132992333Y-115602738D01*
X132944714Y-115697976D01*
X132944714Y-115840833D01*
X132992333Y-115936071D01*
X133087571Y-115983690D01*
X133611380Y-115983690D01*
X132944714Y-116317023D02*
X132944714Y-116697976D01*
X132611380Y-116459880D02*
X133468523Y-116459880D01*
X133563761Y-116507500D01*
X133611380Y-116602738D01*
X133611380Y-116697976D01*
X133563761Y-117745595D02*
X133611380Y-117888452D01*
X133611380Y-118126547D01*
X133563761Y-118221785D01*
X133516142Y-118269404D01*
X133420904Y-118317023D01*
X133325666Y-118317023D01*
X133230428Y-118269404D01*
X133182809Y-118221785D01*
X133135190Y-118126547D01*
X133087571Y-117936071D01*
X133039952Y-117840833D01*
X132992333Y-117793214D01*
X132897095Y-117745595D01*
X132801857Y-117745595D01*
X132706619Y-117793214D01*
X132659000Y-117840833D01*
X132611380Y-117936071D01*
X132611380Y-118174166D01*
X132659000Y-118317023D01*
X133611380Y-118745595D02*
X132611380Y-118745595D01*
X133611380Y-119174166D02*
X133087571Y-119174166D01*
X132992333Y-119126547D01*
X132944714Y-119031309D01*
X132944714Y-118888452D01*
X132992333Y-118793214D01*
X133039952Y-118745595D01*
X133611380Y-119650357D02*
X132944714Y-119650357D01*
X132611380Y-119650357D02*
X132659000Y-119602738D01*
X132706619Y-119650357D01*
X132659000Y-119697976D01*
X132611380Y-119650357D01*
X132706619Y-119650357D01*
X133563761Y-120507500D02*
X133611380Y-120412261D01*
X133611380Y-120221785D01*
X133563761Y-120126547D01*
X133468523Y-120078928D01*
X133087571Y-120078928D01*
X132992333Y-120126547D01*
X132944714Y-120221785D01*
X132944714Y-120412261D01*
X132992333Y-120507500D01*
X133087571Y-120555119D01*
X133182809Y-120555119D01*
X133278047Y-120078928D01*
X133611380Y-121126547D02*
X133563761Y-121031309D01*
X133468523Y-120983690D01*
X132611380Y-120983690D01*
X133611380Y-121936071D02*
X132611380Y-121936071D01*
X133563761Y-121936071D02*
X133611380Y-121840833D01*
X133611380Y-121650357D01*
X133563761Y-121555119D01*
X133516142Y-121507500D01*
X133420904Y-121459880D01*
X133135190Y-121459880D01*
X133039952Y-121507500D01*
X132992333Y-121555119D01*
X132944714Y-121650357D01*
X132944714Y-121840833D01*
X132992333Y-121936071D01*
X133611380Y-123745595D02*
X133135190Y-123412261D01*
X133611380Y-123174166D02*
X132611380Y-123174166D01*
X132611380Y-123555119D01*
X132659000Y-123650357D01*
X132706619Y-123697976D01*
X132801857Y-123745595D01*
X132944714Y-123745595D01*
X133039952Y-123697976D01*
X133087571Y-123650357D01*
X133135190Y-123555119D01*
X133135190Y-123174166D01*
X133563761Y-124555119D02*
X133611380Y-124459880D01*
X133611380Y-124269404D01*
X133563761Y-124174166D01*
X133468523Y-124126547D01*
X133087571Y-124126547D01*
X132992333Y-124174166D01*
X132944714Y-124269404D01*
X132944714Y-124459880D01*
X132992333Y-124555119D01*
X133087571Y-124602738D01*
X133182809Y-124602738D01*
X133278047Y-124126547D01*
X132944714Y-124936071D02*
X133611380Y-125174166D01*
X132944714Y-125412261D01*
X133516142Y-125793214D02*
X133563761Y-125840833D01*
X133611380Y-125793214D01*
X133563761Y-125745595D01*
X133516142Y-125793214D01*
X133611380Y-125793214D01*
X133611380Y-127555119D02*
X133611380Y-126983690D01*
X133611380Y-127269404D02*
X132611380Y-127269404D01*
X132754238Y-127174166D01*
X132849476Y-127078928D01*
X132897095Y-126983690D01*
D11*
%TO.C,REF\u002A\u002A*%
X131064000Y-100838000D02*
X133604000Y-100838000D01*
X133604000Y-100838000D02*
X133604000Y-104648000D01*
X133604000Y-104648000D02*
X131064000Y-104648000D01*
X131064000Y-104648000D02*
X131064000Y-100838000D01*
X131064000Y-100838000D02*
X130810000Y-101092000D01*
X130810000Y-101092000D02*
X130810000Y-104902000D01*
X130810000Y-104902000D02*
X131064000Y-104648000D01*
X131064000Y-104648000D02*
X130810000Y-104902000D01*
X130810000Y-104902000D02*
X133350000Y-104902000D01*
X133350000Y-104902000D02*
X133604000Y-104648000D01*
X132080000Y-104648000D02*
X131826000Y-104902000D01*
D12*
G36*
X132588000Y-104648000D02*
G01*
X132588000Y-100838000D01*
X132080000Y-100838000D01*
X132080000Y-104648000D01*
X132588000Y-104648000D01*
G37*
X132588000Y-104648000D02*
X132588000Y-100838000D01*
X132080000Y-100838000D01*
X132080000Y-104648000D01*
X132588000Y-104648000D01*
G36*
X132334000Y-104902000D02*
G01*
X132588000Y-104648000D01*
X132080000Y-104648000D01*
X131826000Y-104902000D01*
X132334000Y-104902000D01*
G37*
X132334000Y-104902000D02*
X132588000Y-104648000D01*
X132080000Y-104648000D01*
X131826000Y-104902000D01*
X132334000Y-104902000D01*
%TO.C,FID1*%
D10*
X140009428Y-96893071D02*
X140342761Y-96893071D01*
X140342761Y-97416880D02*
X140342761Y-96416880D01*
X139866571Y-96416880D01*
X139485619Y-97416880D02*
X139485619Y-96416880D01*
X139009428Y-97416880D02*
X139009428Y-96416880D01*
X138771333Y-96416880D01*
X138628476Y-96464500D01*
X138533238Y-96559738D01*
X138485619Y-96654976D01*
X138438000Y-96845452D01*
X138438000Y-96988309D01*
X138485619Y-97178785D01*
X138533238Y-97274023D01*
X138628476Y-97369261D01*
X138771333Y-97416880D01*
X139009428Y-97416880D01*
X137485619Y-97416880D02*
X138057047Y-97416880D01*
X137771333Y-97416880D02*
X137771333Y-96416880D01*
X137866571Y-96559738D01*
X137961809Y-96654976D01*
X138057047Y-96702595D01*
%TD*%
M02*
