%TF.GenerationSoftware,KiCad,Pcbnew,(5.1.10)-1*%
%TF.CreationDate,2021-08-19T13:56:03-06:00*%
%TF.ProjectId,Remote Ocean Acidification Monitor,52656d6f-7465-4204-9f63-65616e204163,rev?*%
%TF.SameCoordinates,Original*%
%TF.FileFunction,Soldermask,Top*%
%TF.FilePolarity,Negative*%
%FSLAX46Y46*%
G04 Gerber Fmt 4.6, Leading zero omitted, Abs format (unit mm)*
G04 Created by KiCad (PCBNEW (5.1.10)-1) date 2021-08-19 13:56:03*
%MOMM*%
%LPD*%
G01*
G04 APERTURE LIST*
%ADD10C,1.801600*%
%ADD11O,2.301600X1.801600*%
%ADD12C,1.701600*%
%ADD13C,3.301600*%
%ADD14C,2.641600*%
%ADD15C,2.101600*%
G04 APERTURE END LIST*
D10*
%TO.C,J1*%
X146050000Y-91440000D03*
X146050000Y-88940000D03*
D11*
X138870000Y-91440000D03*
G36*
G01*
X137719200Y-89575859D02*
X137719200Y-88304141D01*
G75*
G02*
X137984141Y-88039200I264941J0D01*
G01*
X139755859Y-88039200D01*
G75*
G02*
X140020800Y-88304141I0J-264941D01*
G01*
X140020800Y-89575859D01*
G75*
G02*
X139755859Y-89840800I-264941J0D01*
G01*
X137984141Y-89840800D01*
G75*
G02*
X137719200Y-89575859I0J264941D01*
G01*
G37*
%TD*%
%TO.C,D1*%
G36*
G01*
X145934000Y-97566800D02*
X144134000Y-97566800D01*
G75*
G02*
X144083200Y-97516000I0J50800D01*
G01*
X144083200Y-95016000D01*
G75*
G02*
X144134000Y-94965200I50800J0D01*
G01*
X145934000Y-94965200D01*
G75*
G02*
X145984800Y-95016000I0J-50800D01*
G01*
X145984800Y-97516000D01*
G75*
G02*
X145934000Y-97566800I-50800J0D01*
G01*
G37*
G36*
G01*
X145934000Y-101566800D02*
X144134000Y-101566800D01*
G75*
G02*
X144083200Y-101516000I0J50800D01*
G01*
X144083200Y-99016000D01*
G75*
G02*
X144134000Y-98965200I50800J0D01*
G01*
X145934000Y-98965200D01*
G75*
G02*
X145984800Y-99016000I0J-50800D01*
G01*
X145984800Y-101516000D01*
G75*
G02*
X145934000Y-101566800I-50800J0D01*
G01*
G37*
%TD*%
D10*
%TO.C,J2*%
X137494000Y-126266000D03*
X142494000Y-126266000D03*
X137494000Y-119086000D03*
X139994000Y-119086000D03*
X142494000Y-119086000D03*
X137494000Y-116586000D03*
X139994000Y-116586000D03*
G36*
G01*
X141858141Y-115685200D02*
X143129859Y-115685200D01*
G75*
G02*
X143394800Y-115950141I0J-264941D01*
G01*
X143394800Y-117221859D01*
G75*
G02*
X143129859Y-117486800I-264941J0D01*
G01*
X141858141Y-117486800D01*
G75*
G02*
X141593200Y-117221859I0J264941D01*
G01*
X141593200Y-115950141D01*
G75*
G02*
X141858141Y-115685200I264941J0D01*
G01*
G37*
%TD*%
D12*
%TO.C,A1*%
X128270000Y-123190000D03*
X128270000Y-120650000D03*
X128270000Y-118110000D03*
X128270000Y-115570000D03*
X128270000Y-113030000D03*
X128270000Y-110490000D03*
X128270000Y-107950000D03*
X128270000Y-105410000D03*
X128270000Y-102870000D03*
X128270000Y-100330000D03*
X128270000Y-97790000D03*
X128270000Y-95250000D03*
X128270000Y-92710000D03*
X128270000Y-90170000D03*
X128270000Y-87630000D03*
G36*
G01*
X129120800Y-84290000D02*
X129120800Y-85890000D01*
G75*
G02*
X129070000Y-85940800I-50800J0D01*
G01*
X127470000Y-85940800D01*
G75*
G02*
X127419200Y-85890000I0J50800D01*
G01*
X127419200Y-84290000D01*
G75*
G02*
X127470000Y-84239200I50800J0D01*
G01*
X129070000Y-84239200D01*
G75*
G02*
X129120800Y-84290000I0J-50800D01*
G01*
G37*
X148590000Y-95250000D03*
X148590000Y-97790000D03*
X148590000Y-100330000D03*
X148590000Y-102870000D03*
X148590000Y-105410000D03*
X148590000Y-107950000D03*
X148590000Y-110490000D03*
X148590000Y-113030000D03*
X148590000Y-115570000D03*
X148590000Y-118110000D03*
X148590000Y-120650000D03*
X148590000Y-123190000D03*
D13*
X147320000Y-81280000D03*
D14*
X147320000Y-127000000D03*
D13*
X129540000Y-81280000D03*
D14*
X129540000Y-127000000D03*
%TD*%
%TO.C,C1*%
G36*
G01*
X135497633Y-88343300D02*
X133234367Y-88343300D01*
G75*
G02*
X132965200Y-88074133I0J269167D01*
G01*
X132965200Y-87185867D01*
G75*
G02*
X133234367Y-86916700I269167J0D01*
G01*
X135497633Y-86916700D01*
G75*
G02*
X135766800Y-87185867I0J-269167D01*
G01*
X135766800Y-88074133D01*
G75*
G02*
X135497633Y-88343300I-269167J0D01*
G01*
G37*
G36*
G01*
X135497633Y-91468300D02*
X133234367Y-91468300D01*
G75*
G02*
X132965200Y-91199133I0J269167D01*
G01*
X132965200Y-90310867D01*
G75*
G02*
X133234367Y-90041700I269167J0D01*
G01*
X135497633Y-90041700D01*
G75*
G02*
X135766800Y-90310867I0J-269167D01*
G01*
X135766800Y-91199133D01*
G75*
G02*
X135497633Y-91468300I-269167J0D01*
G01*
G37*
%TD*%
%TO.C,C2*%
G36*
G01*
X135497633Y-97525800D02*
X133234367Y-97525800D01*
G75*
G02*
X132965200Y-97256633I0J269167D01*
G01*
X132965200Y-96368367D01*
G75*
G02*
X133234367Y-96099200I269167J0D01*
G01*
X135497633Y-96099200D01*
G75*
G02*
X135766800Y-96368367I0J-269167D01*
G01*
X135766800Y-97256633D01*
G75*
G02*
X135497633Y-97525800I-269167J0D01*
G01*
G37*
G36*
G01*
X135497633Y-94400800D02*
X133234367Y-94400800D01*
G75*
G02*
X132965200Y-94131633I0J269167D01*
G01*
X132965200Y-93243367D01*
G75*
G02*
X133234367Y-92974200I269167J0D01*
G01*
X135497633Y-92974200D01*
G75*
G02*
X135766800Y-93243367I0J-269167D01*
G01*
X135766800Y-94131633D01*
G75*
G02*
X135497633Y-94400800I-269167J0D01*
G01*
G37*
%TD*%
%TO.C,C3*%
G36*
G01*
X141975800Y-95134367D02*
X141975800Y-97397633D01*
G75*
G02*
X141706633Y-97666800I-269167J0D01*
G01*
X140818367Y-97666800D01*
G75*
G02*
X140549200Y-97397633I0J269167D01*
G01*
X140549200Y-95134367D01*
G75*
G02*
X140818367Y-94865200I269167J0D01*
G01*
X141706633Y-94865200D01*
G75*
G02*
X141975800Y-95134367I0J-269167D01*
G01*
G37*
G36*
G01*
X138850800Y-95134367D02*
X138850800Y-97397633D01*
G75*
G02*
X138581633Y-97666800I-269167J0D01*
G01*
X137693367Y-97666800D01*
G75*
G02*
X137424200Y-97397633I0J269167D01*
G01*
X137424200Y-95134367D01*
G75*
G02*
X137693367Y-94865200I269167J0D01*
G01*
X138581633Y-94865200D01*
G75*
G02*
X138850800Y-95134367I0J-269167D01*
G01*
G37*
%TD*%
%TO.C,C4*%
G36*
G01*
X132944200Y-112518183D02*
X132944200Y-111509817D01*
G75*
G02*
X133215817Y-111238200I271617J0D01*
G01*
X133949183Y-111238200D01*
G75*
G02*
X134220800Y-111509817I0J-271617D01*
G01*
X134220800Y-112518183D01*
G75*
G02*
X133949183Y-112789800I-271617J0D01*
G01*
X133215817Y-112789800D01*
G75*
G02*
X132944200Y-112518183I0J271617D01*
G01*
G37*
G36*
G01*
X135019200Y-112518183D02*
X135019200Y-111509817D01*
G75*
G02*
X135290817Y-111238200I271617J0D01*
G01*
X136024183Y-111238200D01*
G75*
G02*
X136295800Y-111509817I0J-271617D01*
G01*
X136295800Y-112518183D01*
G75*
G02*
X136024183Y-112789800I-271617J0D01*
G01*
X135290817Y-112789800D01*
G75*
G02*
X135019200Y-112518183I0J271617D01*
G01*
G37*
%TD*%
%TO.C,C5*%
G36*
G01*
X144268183Y-114473300D02*
X143259817Y-114473300D01*
G75*
G02*
X142988200Y-114201683I0J271617D01*
G01*
X142988200Y-113468317D01*
G75*
G02*
X143259817Y-113196700I271617J0D01*
G01*
X144268183Y-113196700D01*
G75*
G02*
X144539800Y-113468317I0J-271617D01*
G01*
X144539800Y-114201683D01*
G75*
G02*
X144268183Y-114473300I-271617J0D01*
G01*
G37*
G36*
G01*
X144268183Y-112398300D02*
X143259817Y-112398300D01*
G75*
G02*
X142988200Y-112126683I0J271617D01*
G01*
X142988200Y-111393317D01*
G75*
G02*
X143259817Y-111121700I271617J0D01*
G01*
X144268183Y-111121700D01*
G75*
G02*
X144539800Y-111393317I0J-271617D01*
G01*
X144539800Y-112126683D01*
G75*
G02*
X144268183Y-112398300I-271617J0D01*
G01*
G37*
%TD*%
%TO.C,C6*%
G36*
G01*
X137516200Y-112518183D02*
X137516200Y-111509817D01*
G75*
G02*
X137787817Y-111238200I271617J0D01*
G01*
X138521183Y-111238200D01*
G75*
G02*
X138792800Y-111509817I0J-271617D01*
G01*
X138792800Y-112518183D01*
G75*
G02*
X138521183Y-112789800I-271617J0D01*
G01*
X137787817Y-112789800D01*
G75*
G02*
X137516200Y-112518183I0J271617D01*
G01*
G37*
G36*
G01*
X139591200Y-112518183D02*
X139591200Y-111509817D01*
G75*
G02*
X139862817Y-111238200I271617J0D01*
G01*
X140596183Y-111238200D01*
G75*
G02*
X140867800Y-111509817I0J-271617D01*
G01*
X140867800Y-112518183D01*
G75*
G02*
X140596183Y-112789800I-271617J0D01*
G01*
X139862817Y-112789800D01*
G75*
G02*
X139591200Y-112518183I0J271617D01*
G01*
G37*
%TD*%
%TO.C,C7*%
G36*
G01*
X134220800Y-100333817D02*
X134220800Y-101342183D01*
G75*
G02*
X133949183Y-101613800I-271617J0D01*
G01*
X133215817Y-101613800D01*
G75*
G02*
X132944200Y-101342183I0J271617D01*
G01*
X132944200Y-100333817D01*
G75*
G02*
X133215817Y-100062200I271617J0D01*
G01*
X133949183Y-100062200D01*
G75*
G02*
X134220800Y-100333817I0J-271617D01*
G01*
G37*
G36*
G01*
X136295800Y-100333817D02*
X136295800Y-101342183D01*
G75*
G02*
X136024183Y-101613800I-271617J0D01*
G01*
X135290817Y-101613800D01*
G75*
G02*
X135019200Y-101342183I0J271617D01*
G01*
X135019200Y-100333817D01*
G75*
G02*
X135290817Y-100062200I271617J0D01*
G01*
X136024183Y-100062200D01*
G75*
G02*
X136295800Y-100333817I0J-271617D01*
G01*
G37*
%TD*%
%TO.C,C8*%
G36*
G01*
X131321817Y-105047200D02*
X132330183Y-105047200D01*
G75*
G02*
X132601800Y-105318817I0J-271617D01*
G01*
X132601800Y-106052183D01*
G75*
G02*
X132330183Y-106323800I-271617J0D01*
G01*
X131321817Y-106323800D01*
G75*
G02*
X131050200Y-106052183I0J271617D01*
G01*
X131050200Y-105318817D01*
G75*
G02*
X131321817Y-105047200I271617J0D01*
G01*
G37*
G36*
G01*
X131321817Y-102972200D02*
X132330183Y-102972200D01*
G75*
G02*
X132601800Y-103243817I0J-271617D01*
G01*
X132601800Y-103977183D01*
G75*
G02*
X132330183Y-104248800I-271617J0D01*
G01*
X131321817Y-104248800D01*
G75*
G02*
X131050200Y-103977183I0J271617D01*
G01*
X131050200Y-103243817D01*
G75*
G02*
X131321817Y-102972200I271617J0D01*
G01*
G37*
%TD*%
D15*
%TO.C,U1*%
X140970000Y-84074000D03*
X138430000Y-84074000D03*
X135890000Y-84074000D03*
%TD*%
%TO.C,U2*%
G36*
G01*
X134795400Y-109926800D02*
X134444600Y-109926800D01*
G75*
G02*
X134269200Y-109751400I0J175400D01*
G01*
X134269200Y-108050600D01*
G75*
G02*
X134444600Y-107875200I175400J0D01*
G01*
X134795400Y-107875200D01*
G75*
G02*
X134970800Y-108050600I0J-175400D01*
G01*
X134970800Y-109751400D01*
G75*
G02*
X134795400Y-109926800I-175400J0D01*
G01*
G37*
G36*
G01*
X136065400Y-109926800D02*
X135714600Y-109926800D01*
G75*
G02*
X135539200Y-109751400I0J175400D01*
G01*
X135539200Y-108050600D01*
G75*
G02*
X135714600Y-107875200I175400J0D01*
G01*
X136065400Y-107875200D01*
G75*
G02*
X136240800Y-108050600I0J-175400D01*
G01*
X136240800Y-109751400D01*
G75*
G02*
X136065400Y-109926800I-175400J0D01*
G01*
G37*
G36*
G01*
X137335400Y-109926800D02*
X136984600Y-109926800D01*
G75*
G02*
X136809200Y-109751400I0J175400D01*
G01*
X136809200Y-108050600D01*
G75*
G02*
X136984600Y-107875200I175400J0D01*
G01*
X137335400Y-107875200D01*
G75*
G02*
X137510800Y-108050600I0J-175400D01*
G01*
X137510800Y-109751400D01*
G75*
G02*
X137335400Y-109926800I-175400J0D01*
G01*
G37*
G36*
G01*
X138605400Y-109926800D02*
X138254600Y-109926800D01*
G75*
G02*
X138079200Y-109751400I0J175400D01*
G01*
X138079200Y-108050600D01*
G75*
G02*
X138254600Y-107875200I175400J0D01*
G01*
X138605400Y-107875200D01*
G75*
G02*
X138780800Y-108050600I0J-175400D01*
G01*
X138780800Y-109751400D01*
G75*
G02*
X138605400Y-109926800I-175400J0D01*
G01*
G37*
G36*
G01*
X139875400Y-109926800D02*
X139524600Y-109926800D01*
G75*
G02*
X139349200Y-109751400I0J175400D01*
G01*
X139349200Y-108050600D01*
G75*
G02*
X139524600Y-107875200I175400J0D01*
G01*
X139875400Y-107875200D01*
G75*
G02*
X140050800Y-108050600I0J-175400D01*
G01*
X140050800Y-109751400D01*
G75*
G02*
X139875400Y-109926800I-175400J0D01*
G01*
G37*
G36*
G01*
X141145400Y-109926800D02*
X140794600Y-109926800D01*
G75*
G02*
X140619200Y-109751400I0J175400D01*
G01*
X140619200Y-108050600D01*
G75*
G02*
X140794600Y-107875200I175400J0D01*
G01*
X141145400Y-107875200D01*
G75*
G02*
X141320800Y-108050600I0J-175400D01*
G01*
X141320800Y-109751400D01*
G75*
G02*
X141145400Y-109926800I-175400J0D01*
G01*
G37*
G36*
G01*
X142415400Y-109926800D02*
X142064600Y-109926800D01*
G75*
G02*
X141889200Y-109751400I0J175400D01*
G01*
X141889200Y-108050600D01*
G75*
G02*
X142064600Y-107875200I175400J0D01*
G01*
X142415400Y-107875200D01*
G75*
G02*
X142590800Y-108050600I0J-175400D01*
G01*
X142590800Y-109751400D01*
G75*
G02*
X142415400Y-109926800I-175400J0D01*
G01*
G37*
G36*
G01*
X143685400Y-109926800D02*
X143334600Y-109926800D01*
G75*
G02*
X143159200Y-109751400I0J175400D01*
G01*
X143159200Y-108050600D01*
G75*
G02*
X143334600Y-107875200I175400J0D01*
G01*
X143685400Y-107875200D01*
G75*
G02*
X143860800Y-108050600I0J-175400D01*
G01*
X143860800Y-109751400D01*
G75*
G02*
X143685400Y-109926800I-175400J0D01*
G01*
G37*
G36*
G01*
X143685400Y-104976800D02*
X143334600Y-104976800D01*
G75*
G02*
X143159200Y-104801400I0J175400D01*
G01*
X143159200Y-103100600D01*
G75*
G02*
X143334600Y-102925200I175400J0D01*
G01*
X143685400Y-102925200D01*
G75*
G02*
X143860800Y-103100600I0J-175400D01*
G01*
X143860800Y-104801400D01*
G75*
G02*
X143685400Y-104976800I-175400J0D01*
G01*
G37*
G36*
G01*
X142415400Y-104976800D02*
X142064600Y-104976800D01*
G75*
G02*
X141889200Y-104801400I0J175400D01*
G01*
X141889200Y-103100600D01*
G75*
G02*
X142064600Y-102925200I175400J0D01*
G01*
X142415400Y-102925200D01*
G75*
G02*
X142590800Y-103100600I0J-175400D01*
G01*
X142590800Y-104801400D01*
G75*
G02*
X142415400Y-104976800I-175400J0D01*
G01*
G37*
G36*
G01*
X141145400Y-104976800D02*
X140794600Y-104976800D01*
G75*
G02*
X140619200Y-104801400I0J175400D01*
G01*
X140619200Y-103100600D01*
G75*
G02*
X140794600Y-102925200I175400J0D01*
G01*
X141145400Y-102925200D01*
G75*
G02*
X141320800Y-103100600I0J-175400D01*
G01*
X141320800Y-104801400D01*
G75*
G02*
X141145400Y-104976800I-175400J0D01*
G01*
G37*
G36*
G01*
X139875400Y-104976800D02*
X139524600Y-104976800D01*
G75*
G02*
X139349200Y-104801400I0J175400D01*
G01*
X139349200Y-103100600D01*
G75*
G02*
X139524600Y-102925200I175400J0D01*
G01*
X139875400Y-102925200D01*
G75*
G02*
X140050800Y-103100600I0J-175400D01*
G01*
X140050800Y-104801400D01*
G75*
G02*
X139875400Y-104976800I-175400J0D01*
G01*
G37*
G36*
G01*
X138605400Y-104976800D02*
X138254600Y-104976800D01*
G75*
G02*
X138079200Y-104801400I0J175400D01*
G01*
X138079200Y-103100600D01*
G75*
G02*
X138254600Y-102925200I175400J0D01*
G01*
X138605400Y-102925200D01*
G75*
G02*
X138780800Y-103100600I0J-175400D01*
G01*
X138780800Y-104801400D01*
G75*
G02*
X138605400Y-104976800I-175400J0D01*
G01*
G37*
G36*
G01*
X137335400Y-104976800D02*
X136984600Y-104976800D01*
G75*
G02*
X136809200Y-104801400I0J175400D01*
G01*
X136809200Y-103100600D01*
G75*
G02*
X136984600Y-102925200I175400J0D01*
G01*
X137335400Y-102925200D01*
G75*
G02*
X137510800Y-103100600I0J-175400D01*
G01*
X137510800Y-104801400D01*
G75*
G02*
X137335400Y-104976800I-175400J0D01*
G01*
G37*
G36*
G01*
X136065400Y-104976800D02*
X135714600Y-104976800D01*
G75*
G02*
X135539200Y-104801400I0J175400D01*
G01*
X135539200Y-103100600D01*
G75*
G02*
X135714600Y-102925200I175400J0D01*
G01*
X136065400Y-102925200D01*
G75*
G02*
X136240800Y-103100600I0J-175400D01*
G01*
X136240800Y-104801400D01*
G75*
G02*
X136065400Y-104976800I-175400J0D01*
G01*
G37*
G36*
G01*
X134795400Y-104976800D02*
X134444600Y-104976800D01*
G75*
G02*
X134269200Y-104801400I0J175400D01*
G01*
X134269200Y-103100600D01*
G75*
G02*
X134444600Y-102925200I175400J0D01*
G01*
X134795400Y-102925200D01*
G75*
G02*
X134970800Y-103100600I0J-175400D01*
G01*
X134970800Y-104801400D01*
G75*
G02*
X134795400Y-104976800I-175400J0D01*
G01*
G37*
%TD*%
%TO.C,R1*%
G36*
G01*
X140341800Y-100067100D02*
X140341800Y-100592900D01*
G75*
G02*
X140078900Y-100855800I-262900J0D01*
G01*
X139528100Y-100855800D01*
G75*
G02*
X139265200Y-100592900I0J262900D01*
G01*
X139265200Y-100067100D01*
G75*
G02*
X139528100Y-99804200I262900J0D01*
G01*
X140078900Y-99804200D01*
G75*
G02*
X140341800Y-100067100I0J-262900D01*
G01*
G37*
G36*
G01*
X142166800Y-100067100D02*
X142166800Y-100592900D01*
G75*
G02*
X141903900Y-100855800I-262900J0D01*
G01*
X141353100Y-100855800D01*
G75*
G02*
X141090200Y-100592900I0J262900D01*
G01*
X141090200Y-100067100D01*
G75*
G02*
X141353100Y-99804200I262900J0D01*
G01*
X141903900Y-99804200D01*
G75*
G02*
X142166800Y-100067100I0J-262900D01*
G01*
G37*
%TD*%
%TO.C,R2*%
G36*
G01*
X130293100Y-98879200D02*
X130818900Y-98879200D01*
G75*
G02*
X131081800Y-99142100I0J-262900D01*
G01*
X131081800Y-99692900D01*
G75*
G02*
X130818900Y-99955800I-262900J0D01*
G01*
X130293100Y-99955800D01*
G75*
G02*
X130030200Y-99692900I0J262900D01*
G01*
X130030200Y-99142100D01*
G75*
G02*
X130293100Y-98879200I262900J0D01*
G01*
G37*
G36*
G01*
X130293100Y-100704200D02*
X130818900Y-100704200D01*
G75*
G02*
X131081800Y-100967100I0J-262900D01*
G01*
X131081800Y-101517900D01*
G75*
G02*
X130818900Y-101780800I-262900J0D01*
G01*
X130293100Y-101780800D01*
G75*
G02*
X130030200Y-101517900I0J262900D01*
G01*
X130030200Y-100967100D01*
G75*
G02*
X130293100Y-100704200I262900J0D01*
G01*
G37*
%TD*%
%TO.C,R3*%
G36*
G01*
X130293100Y-90544200D02*
X130818900Y-90544200D01*
G75*
G02*
X131081800Y-90807100I0J-262900D01*
G01*
X131081800Y-91357900D01*
G75*
G02*
X130818900Y-91620800I-262900J0D01*
G01*
X130293100Y-91620800D01*
G75*
G02*
X130030200Y-91357900I0J262900D01*
G01*
X130030200Y-90807100D01*
G75*
G02*
X130293100Y-90544200I262900J0D01*
G01*
G37*
G36*
G01*
X130293100Y-88719200D02*
X130818900Y-88719200D01*
G75*
G02*
X131081800Y-88982100I0J-262900D01*
G01*
X131081800Y-89532900D01*
G75*
G02*
X130818900Y-89795800I-262900J0D01*
G01*
X130293100Y-89795800D01*
G75*
G02*
X130030200Y-89532900I0J262900D01*
G01*
X130030200Y-88982100D01*
G75*
G02*
X130293100Y-88719200I262900J0D01*
G01*
G37*
%TD*%
%TO.C,R4*%
G36*
G01*
X130293100Y-93037200D02*
X130818900Y-93037200D01*
G75*
G02*
X131081800Y-93300100I0J-262900D01*
G01*
X131081800Y-93850900D01*
G75*
G02*
X130818900Y-94113800I-262900J0D01*
G01*
X130293100Y-94113800D01*
G75*
G02*
X130030200Y-93850900I0J262900D01*
G01*
X130030200Y-93300100D01*
G75*
G02*
X130293100Y-93037200I262900J0D01*
G01*
G37*
G36*
G01*
X130293100Y-94862200D02*
X130818900Y-94862200D01*
G75*
G02*
X131081800Y-95125100I0J-262900D01*
G01*
X131081800Y-95675900D01*
G75*
G02*
X130818900Y-95938800I-262900J0D01*
G01*
X130293100Y-95938800D01*
G75*
G02*
X130030200Y-95675900I0J262900D01*
G01*
X130030200Y-95125100D01*
G75*
G02*
X130293100Y-94862200I262900J0D01*
G01*
G37*
%TD*%
M02*
