%TF.GenerationSoftware,KiCad,Pcbnew,(5.1.10)-1*%
%TF.CreationDate,2021-08-19T13:56:03-06:00*%
%TF.ProjectId,Remote Ocean Acidification Monitor,52656d6f-7465-4204-9f63-65616e204163,rev?*%
%TF.SameCoordinates,Original*%
%TF.FileFunction,Paste,Top*%
%TF.FilePolarity,Positive*%
%FSLAX46Y46*%
G04 Gerber Fmt 4.6, Leading zero omitted, Abs format (unit mm)*
G04 Created by KiCad (PCBNEW (5.1.10)-1) date 2021-08-19 13:56:03*
%MOMM*%
%LPD*%
G01*
G04 APERTURE LIST*
%ADD10R,1.800000X2.500000*%
G04 APERTURE END LIST*
D10*
%TO.C,D1*%
X145034000Y-96266000D03*
X145034000Y-100266000D03*
%TD*%
%TO.C,C1*%
G36*
G01*
X135466002Y-88292500D02*
X133265998Y-88292500D01*
G75*
G02*
X133016000Y-88042502I0J249998D01*
G01*
X133016000Y-87217498D01*
G75*
G02*
X133265998Y-86967500I249998J0D01*
G01*
X135466002Y-86967500D01*
G75*
G02*
X135716000Y-87217498I0J-249998D01*
G01*
X135716000Y-88042502D01*
G75*
G02*
X135466002Y-88292500I-249998J0D01*
G01*
G37*
G36*
G01*
X135466002Y-91417500D02*
X133265998Y-91417500D01*
G75*
G02*
X133016000Y-91167502I0J249998D01*
G01*
X133016000Y-90342498D01*
G75*
G02*
X133265998Y-90092500I249998J0D01*
G01*
X135466002Y-90092500D01*
G75*
G02*
X135716000Y-90342498I0J-249998D01*
G01*
X135716000Y-91167502D01*
G75*
G02*
X135466002Y-91417500I-249998J0D01*
G01*
G37*
%TD*%
%TO.C,C2*%
G36*
G01*
X135466002Y-97475000D02*
X133265998Y-97475000D01*
G75*
G02*
X133016000Y-97225002I0J249998D01*
G01*
X133016000Y-96399998D01*
G75*
G02*
X133265998Y-96150000I249998J0D01*
G01*
X135466002Y-96150000D01*
G75*
G02*
X135716000Y-96399998I0J-249998D01*
G01*
X135716000Y-97225002D01*
G75*
G02*
X135466002Y-97475000I-249998J0D01*
G01*
G37*
G36*
G01*
X135466002Y-94350000D02*
X133265998Y-94350000D01*
G75*
G02*
X133016000Y-94100002I0J249998D01*
G01*
X133016000Y-93274998D01*
G75*
G02*
X133265998Y-93025000I249998J0D01*
G01*
X135466002Y-93025000D01*
G75*
G02*
X135716000Y-93274998I0J-249998D01*
G01*
X135716000Y-94100002D01*
G75*
G02*
X135466002Y-94350000I-249998J0D01*
G01*
G37*
%TD*%
%TO.C,C3*%
G36*
G01*
X141925000Y-95165998D02*
X141925000Y-97366002D01*
G75*
G02*
X141675002Y-97616000I-249998J0D01*
G01*
X140849998Y-97616000D01*
G75*
G02*
X140600000Y-97366002I0J249998D01*
G01*
X140600000Y-95165998D01*
G75*
G02*
X140849998Y-94916000I249998J0D01*
G01*
X141675002Y-94916000D01*
G75*
G02*
X141925000Y-95165998I0J-249998D01*
G01*
G37*
G36*
G01*
X138800000Y-95165998D02*
X138800000Y-97366002D01*
G75*
G02*
X138550002Y-97616000I-249998J0D01*
G01*
X137724998Y-97616000D01*
G75*
G02*
X137475000Y-97366002I0J249998D01*
G01*
X137475000Y-95165998D01*
G75*
G02*
X137724998Y-94916000I249998J0D01*
G01*
X138550002Y-94916000D01*
G75*
G02*
X138800000Y-95165998I0J-249998D01*
G01*
G37*
%TD*%
%TO.C,C4*%
G36*
G01*
X132995000Y-112489000D02*
X132995000Y-111539000D01*
G75*
G02*
X133245000Y-111289000I250000J0D01*
G01*
X133920000Y-111289000D01*
G75*
G02*
X134170000Y-111539000I0J-250000D01*
G01*
X134170000Y-112489000D01*
G75*
G02*
X133920000Y-112739000I-250000J0D01*
G01*
X133245000Y-112739000D01*
G75*
G02*
X132995000Y-112489000I0J250000D01*
G01*
G37*
G36*
G01*
X135070000Y-112489000D02*
X135070000Y-111539000D01*
G75*
G02*
X135320000Y-111289000I250000J0D01*
G01*
X135995000Y-111289000D01*
G75*
G02*
X136245000Y-111539000I0J-250000D01*
G01*
X136245000Y-112489000D01*
G75*
G02*
X135995000Y-112739000I-250000J0D01*
G01*
X135320000Y-112739000D01*
G75*
G02*
X135070000Y-112489000I0J250000D01*
G01*
G37*
%TD*%
%TO.C,C5*%
G36*
G01*
X144239000Y-114422500D02*
X143289000Y-114422500D01*
G75*
G02*
X143039000Y-114172500I0J250000D01*
G01*
X143039000Y-113497500D01*
G75*
G02*
X143289000Y-113247500I250000J0D01*
G01*
X144239000Y-113247500D01*
G75*
G02*
X144489000Y-113497500I0J-250000D01*
G01*
X144489000Y-114172500D01*
G75*
G02*
X144239000Y-114422500I-250000J0D01*
G01*
G37*
G36*
G01*
X144239000Y-112347500D02*
X143289000Y-112347500D01*
G75*
G02*
X143039000Y-112097500I0J250000D01*
G01*
X143039000Y-111422500D01*
G75*
G02*
X143289000Y-111172500I250000J0D01*
G01*
X144239000Y-111172500D01*
G75*
G02*
X144489000Y-111422500I0J-250000D01*
G01*
X144489000Y-112097500D01*
G75*
G02*
X144239000Y-112347500I-250000J0D01*
G01*
G37*
%TD*%
%TO.C,C6*%
G36*
G01*
X137567000Y-112489000D02*
X137567000Y-111539000D01*
G75*
G02*
X137817000Y-111289000I250000J0D01*
G01*
X138492000Y-111289000D01*
G75*
G02*
X138742000Y-111539000I0J-250000D01*
G01*
X138742000Y-112489000D01*
G75*
G02*
X138492000Y-112739000I-250000J0D01*
G01*
X137817000Y-112739000D01*
G75*
G02*
X137567000Y-112489000I0J250000D01*
G01*
G37*
G36*
G01*
X139642000Y-112489000D02*
X139642000Y-111539000D01*
G75*
G02*
X139892000Y-111289000I250000J0D01*
G01*
X140567000Y-111289000D01*
G75*
G02*
X140817000Y-111539000I0J-250000D01*
G01*
X140817000Y-112489000D01*
G75*
G02*
X140567000Y-112739000I-250000J0D01*
G01*
X139892000Y-112739000D01*
G75*
G02*
X139642000Y-112489000I0J250000D01*
G01*
G37*
%TD*%
%TO.C,C7*%
G36*
G01*
X134170000Y-100363000D02*
X134170000Y-101313000D01*
G75*
G02*
X133920000Y-101563000I-250000J0D01*
G01*
X133245000Y-101563000D01*
G75*
G02*
X132995000Y-101313000I0J250000D01*
G01*
X132995000Y-100363000D01*
G75*
G02*
X133245000Y-100113000I250000J0D01*
G01*
X133920000Y-100113000D01*
G75*
G02*
X134170000Y-100363000I0J-250000D01*
G01*
G37*
G36*
G01*
X136245000Y-100363000D02*
X136245000Y-101313000D01*
G75*
G02*
X135995000Y-101563000I-250000J0D01*
G01*
X135320000Y-101563000D01*
G75*
G02*
X135070000Y-101313000I0J250000D01*
G01*
X135070000Y-100363000D01*
G75*
G02*
X135320000Y-100113000I250000J0D01*
G01*
X135995000Y-100113000D01*
G75*
G02*
X136245000Y-100363000I0J-250000D01*
G01*
G37*
%TD*%
%TO.C,C8*%
G36*
G01*
X131351000Y-105098000D02*
X132301000Y-105098000D01*
G75*
G02*
X132551000Y-105348000I0J-250000D01*
G01*
X132551000Y-106023000D01*
G75*
G02*
X132301000Y-106273000I-250000J0D01*
G01*
X131351000Y-106273000D01*
G75*
G02*
X131101000Y-106023000I0J250000D01*
G01*
X131101000Y-105348000D01*
G75*
G02*
X131351000Y-105098000I250000J0D01*
G01*
G37*
G36*
G01*
X131351000Y-103023000D02*
X132301000Y-103023000D01*
G75*
G02*
X132551000Y-103273000I0J-250000D01*
G01*
X132551000Y-103948000D01*
G75*
G02*
X132301000Y-104198000I-250000J0D01*
G01*
X131351000Y-104198000D01*
G75*
G02*
X131101000Y-103948000I0J250000D01*
G01*
X131101000Y-103273000D01*
G75*
G02*
X131351000Y-103023000I250000J0D01*
G01*
G37*
%TD*%
%TO.C,U2*%
G36*
G01*
X134770000Y-109876000D02*
X134470000Y-109876000D01*
G75*
G02*
X134320000Y-109726000I0J150000D01*
G01*
X134320000Y-108076000D01*
G75*
G02*
X134470000Y-107926000I150000J0D01*
G01*
X134770000Y-107926000D01*
G75*
G02*
X134920000Y-108076000I0J-150000D01*
G01*
X134920000Y-109726000D01*
G75*
G02*
X134770000Y-109876000I-150000J0D01*
G01*
G37*
G36*
G01*
X136040000Y-109876000D02*
X135740000Y-109876000D01*
G75*
G02*
X135590000Y-109726000I0J150000D01*
G01*
X135590000Y-108076000D01*
G75*
G02*
X135740000Y-107926000I150000J0D01*
G01*
X136040000Y-107926000D01*
G75*
G02*
X136190000Y-108076000I0J-150000D01*
G01*
X136190000Y-109726000D01*
G75*
G02*
X136040000Y-109876000I-150000J0D01*
G01*
G37*
G36*
G01*
X137310000Y-109876000D02*
X137010000Y-109876000D01*
G75*
G02*
X136860000Y-109726000I0J150000D01*
G01*
X136860000Y-108076000D01*
G75*
G02*
X137010000Y-107926000I150000J0D01*
G01*
X137310000Y-107926000D01*
G75*
G02*
X137460000Y-108076000I0J-150000D01*
G01*
X137460000Y-109726000D01*
G75*
G02*
X137310000Y-109876000I-150000J0D01*
G01*
G37*
G36*
G01*
X138580000Y-109876000D02*
X138280000Y-109876000D01*
G75*
G02*
X138130000Y-109726000I0J150000D01*
G01*
X138130000Y-108076000D01*
G75*
G02*
X138280000Y-107926000I150000J0D01*
G01*
X138580000Y-107926000D01*
G75*
G02*
X138730000Y-108076000I0J-150000D01*
G01*
X138730000Y-109726000D01*
G75*
G02*
X138580000Y-109876000I-150000J0D01*
G01*
G37*
G36*
G01*
X139850000Y-109876000D02*
X139550000Y-109876000D01*
G75*
G02*
X139400000Y-109726000I0J150000D01*
G01*
X139400000Y-108076000D01*
G75*
G02*
X139550000Y-107926000I150000J0D01*
G01*
X139850000Y-107926000D01*
G75*
G02*
X140000000Y-108076000I0J-150000D01*
G01*
X140000000Y-109726000D01*
G75*
G02*
X139850000Y-109876000I-150000J0D01*
G01*
G37*
G36*
G01*
X141120000Y-109876000D02*
X140820000Y-109876000D01*
G75*
G02*
X140670000Y-109726000I0J150000D01*
G01*
X140670000Y-108076000D01*
G75*
G02*
X140820000Y-107926000I150000J0D01*
G01*
X141120000Y-107926000D01*
G75*
G02*
X141270000Y-108076000I0J-150000D01*
G01*
X141270000Y-109726000D01*
G75*
G02*
X141120000Y-109876000I-150000J0D01*
G01*
G37*
G36*
G01*
X142390000Y-109876000D02*
X142090000Y-109876000D01*
G75*
G02*
X141940000Y-109726000I0J150000D01*
G01*
X141940000Y-108076000D01*
G75*
G02*
X142090000Y-107926000I150000J0D01*
G01*
X142390000Y-107926000D01*
G75*
G02*
X142540000Y-108076000I0J-150000D01*
G01*
X142540000Y-109726000D01*
G75*
G02*
X142390000Y-109876000I-150000J0D01*
G01*
G37*
G36*
G01*
X143660000Y-109876000D02*
X143360000Y-109876000D01*
G75*
G02*
X143210000Y-109726000I0J150000D01*
G01*
X143210000Y-108076000D01*
G75*
G02*
X143360000Y-107926000I150000J0D01*
G01*
X143660000Y-107926000D01*
G75*
G02*
X143810000Y-108076000I0J-150000D01*
G01*
X143810000Y-109726000D01*
G75*
G02*
X143660000Y-109876000I-150000J0D01*
G01*
G37*
G36*
G01*
X143660000Y-104926000D02*
X143360000Y-104926000D01*
G75*
G02*
X143210000Y-104776000I0J150000D01*
G01*
X143210000Y-103126000D01*
G75*
G02*
X143360000Y-102976000I150000J0D01*
G01*
X143660000Y-102976000D01*
G75*
G02*
X143810000Y-103126000I0J-150000D01*
G01*
X143810000Y-104776000D01*
G75*
G02*
X143660000Y-104926000I-150000J0D01*
G01*
G37*
G36*
G01*
X142390000Y-104926000D02*
X142090000Y-104926000D01*
G75*
G02*
X141940000Y-104776000I0J150000D01*
G01*
X141940000Y-103126000D01*
G75*
G02*
X142090000Y-102976000I150000J0D01*
G01*
X142390000Y-102976000D01*
G75*
G02*
X142540000Y-103126000I0J-150000D01*
G01*
X142540000Y-104776000D01*
G75*
G02*
X142390000Y-104926000I-150000J0D01*
G01*
G37*
G36*
G01*
X141120000Y-104926000D02*
X140820000Y-104926000D01*
G75*
G02*
X140670000Y-104776000I0J150000D01*
G01*
X140670000Y-103126000D01*
G75*
G02*
X140820000Y-102976000I150000J0D01*
G01*
X141120000Y-102976000D01*
G75*
G02*
X141270000Y-103126000I0J-150000D01*
G01*
X141270000Y-104776000D01*
G75*
G02*
X141120000Y-104926000I-150000J0D01*
G01*
G37*
G36*
G01*
X139850000Y-104926000D02*
X139550000Y-104926000D01*
G75*
G02*
X139400000Y-104776000I0J150000D01*
G01*
X139400000Y-103126000D01*
G75*
G02*
X139550000Y-102976000I150000J0D01*
G01*
X139850000Y-102976000D01*
G75*
G02*
X140000000Y-103126000I0J-150000D01*
G01*
X140000000Y-104776000D01*
G75*
G02*
X139850000Y-104926000I-150000J0D01*
G01*
G37*
G36*
G01*
X138580000Y-104926000D02*
X138280000Y-104926000D01*
G75*
G02*
X138130000Y-104776000I0J150000D01*
G01*
X138130000Y-103126000D01*
G75*
G02*
X138280000Y-102976000I150000J0D01*
G01*
X138580000Y-102976000D01*
G75*
G02*
X138730000Y-103126000I0J-150000D01*
G01*
X138730000Y-104776000D01*
G75*
G02*
X138580000Y-104926000I-150000J0D01*
G01*
G37*
G36*
G01*
X137310000Y-104926000D02*
X137010000Y-104926000D01*
G75*
G02*
X136860000Y-104776000I0J150000D01*
G01*
X136860000Y-103126000D01*
G75*
G02*
X137010000Y-102976000I150000J0D01*
G01*
X137310000Y-102976000D01*
G75*
G02*
X137460000Y-103126000I0J-150000D01*
G01*
X137460000Y-104776000D01*
G75*
G02*
X137310000Y-104926000I-150000J0D01*
G01*
G37*
G36*
G01*
X136040000Y-104926000D02*
X135740000Y-104926000D01*
G75*
G02*
X135590000Y-104776000I0J150000D01*
G01*
X135590000Y-103126000D01*
G75*
G02*
X135740000Y-102976000I150000J0D01*
G01*
X136040000Y-102976000D01*
G75*
G02*
X136190000Y-103126000I0J-150000D01*
G01*
X136190000Y-104776000D01*
G75*
G02*
X136040000Y-104926000I-150000J0D01*
G01*
G37*
G36*
G01*
X134770000Y-104926000D02*
X134470000Y-104926000D01*
G75*
G02*
X134320000Y-104776000I0J150000D01*
G01*
X134320000Y-103126000D01*
G75*
G02*
X134470000Y-102976000I150000J0D01*
G01*
X134770000Y-102976000D01*
G75*
G02*
X134920000Y-103126000I0J-150000D01*
G01*
X134920000Y-104776000D01*
G75*
G02*
X134770000Y-104926000I-150000J0D01*
G01*
G37*
%TD*%
%TO.C,R1*%
G36*
G01*
X140291000Y-100092500D02*
X140291000Y-100567500D01*
G75*
G02*
X140053500Y-100805000I-237500J0D01*
G01*
X139553500Y-100805000D01*
G75*
G02*
X139316000Y-100567500I0J237500D01*
G01*
X139316000Y-100092500D01*
G75*
G02*
X139553500Y-99855000I237500J0D01*
G01*
X140053500Y-99855000D01*
G75*
G02*
X140291000Y-100092500I0J-237500D01*
G01*
G37*
G36*
G01*
X142116000Y-100092500D02*
X142116000Y-100567500D01*
G75*
G02*
X141878500Y-100805000I-237500J0D01*
G01*
X141378500Y-100805000D01*
G75*
G02*
X141141000Y-100567500I0J237500D01*
G01*
X141141000Y-100092500D01*
G75*
G02*
X141378500Y-99855000I237500J0D01*
G01*
X141878500Y-99855000D01*
G75*
G02*
X142116000Y-100092500I0J-237500D01*
G01*
G37*
%TD*%
%TO.C,R2*%
G36*
G01*
X130318500Y-98930000D02*
X130793500Y-98930000D01*
G75*
G02*
X131031000Y-99167500I0J-237500D01*
G01*
X131031000Y-99667500D01*
G75*
G02*
X130793500Y-99905000I-237500J0D01*
G01*
X130318500Y-99905000D01*
G75*
G02*
X130081000Y-99667500I0J237500D01*
G01*
X130081000Y-99167500D01*
G75*
G02*
X130318500Y-98930000I237500J0D01*
G01*
G37*
G36*
G01*
X130318500Y-100755000D02*
X130793500Y-100755000D01*
G75*
G02*
X131031000Y-100992500I0J-237500D01*
G01*
X131031000Y-101492500D01*
G75*
G02*
X130793500Y-101730000I-237500J0D01*
G01*
X130318500Y-101730000D01*
G75*
G02*
X130081000Y-101492500I0J237500D01*
G01*
X130081000Y-100992500D01*
G75*
G02*
X130318500Y-100755000I237500J0D01*
G01*
G37*
%TD*%
%TO.C,R3*%
G36*
G01*
X130318500Y-90595000D02*
X130793500Y-90595000D01*
G75*
G02*
X131031000Y-90832500I0J-237500D01*
G01*
X131031000Y-91332500D01*
G75*
G02*
X130793500Y-91570000I-237500J0D01*
G01*
X130318500Y-91570000D01*
G75*
G02*
X130081000Y-91332500I0J237500D01*
G01*
X130081000Y-90832500D01*
G75*
G02*
X130318500Y-90595000I237500J0D01*
G01*
G37*
G36*
G01*
X130318500Y-88770000D02*
X130793500Y-88770000D01*
G75*
G02*
X131031000Y-89007500I0J-237500D01*
G01*
X131031000Y-89507500D01*
G75*
G02*
X130793500Y-89745000I-237500J0D01*
G01*
X130318500Y-89745000D01*
G75*
G02*
X130081000Y-89507500I0J237500D01*
G01*
X130081000Y-89007500D01*
G75*
G02*
X130318500Y-88770000I237500J0D01*
G01*
G37*
%TD*%
%TO.C,R4*%
G36*
G01*
X130318500Y-93088000D02*
X130793500Y-93088000D01*
G75*
G02*
X131031000Y-93325500I0J-237500D01*
G01*
X131031000Y-93825500D01*
G75*
G02*
X130793500Y-94063000I-237500J0D01*
G01*
X130318500Y-94063000D01*
G75*
G02*
X130081000Y-93825500I0J237500D01*
G01*
X130081000Y-93325500D01*
G75*
G02*
X130318500Y-93088000I237500J0D01*
G01*
G37*
G36*
G01*
X130318500Y-94913000D02*
X130793500Y-94913000D01*
G75*
G02*
X131031000Y-95150500I0J-237500D01*
G01*
X131031000Y-95650500D01*
G75*
G02*
X130793500Y-95888000I-237500J0D01*
G01*
X130318500Y-95888000D01*
G75*
G02*
X130081000Y-95650500I0J237500D01*
G01*
X130081000Y-95150500D01*
G75*
G02*
X130318500Y-94913000I237500J0D01*
G01*
G37*
%TD*%
M02*
