M48
; DRILL file {KiCad (5.1.10)-1} date 08/19/21 13:55:59
; FORMAT={-:-/ absolute / inch / decimal}
; #@! TF.CreationDate,2021-08-19T13:55:59-06:00
; #@! TF.GenerationSoftware,Kicad,Pcbnew,(5.1.10)-1
; #@! TF.FileFunction,Plated,1,2,PTH
FMAT,2
INCH
T1C0.0150
T2C0.0315
T3C0.0394
T4C0.0472
%
G90
G05
T1
X5.14Y-3.45
X5.14Y-3.82
X5.36Y-3.88
X5.4Y-4.01
X5.44Y-3.89
X5.45Y-4.01
T2
X5.05Y-3.35
X5.05Y-3.45
X5.05Y-3.55
X5.05Y-3.65
X5.05Y-3.75
X5.05Y-3.85
X5.05Y-3.95
X5.05Y-4.05
X5.05Y-4.15
X5.05Y-4.25
X5.05Y-4.35
X5.05Y-4.45
X5.05Y-4.55
X5.05Y-4.65
X5.05Y-4.75
X5.05Y-4.85
X5.85Y-3.75
X5.85Y-3.85
X5.85Y-3.95
X5.85Y-4.05
X5.85Y-4.15
X5.85Y-4.25
X5.85Y-4.35
X5.85Y-4.45
X5.85Y-4.55
X5.85Y-4.65
X5.85Y-4.75
X5.85Y-4.85
T3
X5.35Y-3.31
X5.45Y-3.31
X5.55Y-3.31
T4
X5.4131Y-4.59
X5.4131Y-4.6884
X5.4673Y-3.5016
X5.4673Y-3.6
X5.5116Y-4.59
X5.5116Y-4.6884
X5.61Y-4.59
X5.61Y-4.6884
T0
M30
